{
    "accessors": {
        "accessor_26": {
            "bufferView": "bufferView_35",
            "byteOffset": 0,
            "byteStride": 0,
            "componentType": 5123,
            "count": 8421,
            "type": "SCALAR"
        },
        "accessor_29": {
            "bufferView": "bufferView_35",
            "byteOffset": 16842,
            "byteStride": 0,
            "componentType": 5123,
            "count": 4917,
            "type": "SCALAR"
        },
        "accessor_31": {
            "bufferView": "bufferView_36",
            "byteOffset": 0,
            "byteStride": 12,
            "componentType": 5126,
            "count": 7522,
            "max": [
                31.9333,
                28.6365,
                46.4816
            ],
            "min": [
                -295.65,
                -91.7207,
                0
            ],
            "type": "VEC3"
        },
        "accessor_33": {
            "bufferView": "bufferView_36",
            "byteOffset": 90264,
            "byteStride": 8,
            "componentType": 5126,
            "count": 7522,
            "max": [
                0.999511,
                0.999756
            ],
            "min": [
                0.000244,
                0.33138
            ],
            "type": "VEC2"
        }
    },
    "animations": {},
    "asset": {
        "generator": "collada2gltf@d78daf1e7950e6c22fe6bec1d07965e8a302e90d",
        "premultipliedAlpha": true,
        "profile": {
            "api": "WebGL",
            "version": "1.0.2"
        },
        "version": 1
    },
    "bufferViews": {
        "bufferView_35": {
            "buffer": "LYON_1ER_00014",
            "byteLength": 26676,
            "byteOffset": 0,
            "target": 34963
        },
        "bufferView_36": {
            "buffer": "LYON_1ER_00014",
            "byteLength": 150440,
            "byteOffset": 26676,
            "target": 34962
        }
    },
    "buffers": {
        "LYON_1ER_00014": {
            "byteLength": 177116,
            "type": "arraybuffer",
            "uri": "data:application/octet-stream;base64,"
        }
    },
    "images": {
        "textureAtlas_1975372881_0_img": {
            "name": "textureAtlas_1975372881_0_img",
            "uri": "textureAtlas_1975372881_0.jpeg"
        },
        "textureAtlas_1975372881_1_img": {
            "name": "textureAtlas_1975372881_1_img",
            "uri": "textureAtlas_1975372881_1.jpeg"
        }
    },
    "materials": {
        "textureAtlas_1975372881_0_eff": {
            "name": "textureAtlas_1975372881_0_mat",
            "technique": "technique0",
            "values": {
                "diffuse": "texture_textureAtlas_1975372881_0_img",
                "emission": [
                    0,
                    0,
                    0,
                    1
                ]
            }
        },
        "textureAtlas_1975372881_1_eff": {
            "name": "textureAtlas_1975372881_1_mat",
            "technique": "technique0",
            "values": {
                "diffuse": "texture_textureAtlas_1975372881_1_img",
                "emission": [
                    0,
                    0,
                    0,
                    1
                ]
            }
        }
    },
    "meshes": {
        "geometry0": {
            "name": "geometry0",
            "primitives": [
                {
                    "attributes": {
                        "POSITION": "accessor_31",
                        "TEXCOORD_0": "accessor_33"
                    },
                    "indices": "accessor_26",
                    "material": "textureAtlas_1975372881_0_eff",
                    "mode": 4
                },
                {
                    "attributes": {
                        "POSITION": "accessor_31",
                        "TEXCOORD_0": "accessor_33"
                    },
                    "indices": "accessor_29",
                    "material": "textureAtlas_1975372881_1_eff",
                    "mode": 4
                }
            ]
        }
    },
    "nodes": {
        "node_0": {
            "children": [],
            "matrix": [
                1,
                0,
                0,
                0,
                0,
                1,
                0,
                0,
                0,
                0,
                1,
                0,
                0,
                0,
                0,
                1
            ],
            "meshes": [
                "geometry0"
            ],
            "name": ""
        },
        "node_1": {
            "children": [
                "node_0"
            ],
            "matrix": [
                1,
                0,
                0,
                0,
                0,
                0,
                -1,
                0,
                0,
                1,
                0,
                0,
                0,
                0,
                0,
                1
            ],
            "name": "Y_UP_Transform"
        }
    },
    "programs": {
        "program_0": {
            "attributes": [
                "a_position",
                "a_texcoord0"
            ],
            "fragmentShader": "LYON_1ER_000140FS",
            "vertexShader": "LYON_1ER_000140VS"
        }
    },
    "samplers": {
        "sampler_0": {
            "magFilter": 9729,
            "minFilter": 9729,
            "wrapS": 10497,
            "wrapT": 10497
        }
    },
    "scene": "defaultScene",
    "scenes": {
        "defaultScene": {
            "nodes": [
                "node_1"
            ]
        }
    },
    "shaders": {
        "LYON_1ER_000140FS": {
            "type": 35632,
            "uri": "data:text/plain;base64,"
        },
        "LYON_1ER_000140VS": {
            "type": 35633,
            "uri": "data:text/plain;base64,"
        }
    },
    "skins": {},
    "techniques": {
        "technique0": {
            "attributes": {
                "a_position": "position",
                "a_texcoord0": "texcoord0"
            },
            "parameters": {
                "diffuse": {
                    "type": 35678
                },
                "emission": {
                    "type": 35666
                },
                "modelViewMatrix": {
                    "semantic": "MODELVIEW",
                    "type": 35676
                },
                "position": {
                    "semantic": "POSITION",
                    "type": 35665
                },
                "projectionMatrix": {
                    "semantic": "PROJECTION",
                    "type": 35676
                },
                "texcoord0": {
                    "semantic": "TEXCOORD_0",
                    "type": 35664
                }
            },
            "program": "program_0",
            "states": {
                "enable": [
                    2929,
                    2884
                ]
            },
            "uniforms": {
                "u_diffuse": "diffuse",
                "u_emission": "emission",
                "u_modelViewMatrix": "modelViewMatrix",
                "u_projectionMatrix": "projectionMatrix"
            }
        }
    },
    "textures": {
        "texture_textureAtlas_1975372881_0_img": {
            "format": 6408,
            "internalFormat": 6408,
            "sampler": "sampler_0",
            "source": "textureAtlas_1975372881_0_img",
            "target": 3553,
            "type": 5121
        },
        "texture_textureAtlas_1975372881_1_img": {
            "format": 6408,
            "internalFormat": 6408,
            "sampler": "sampler_0",
            "source": "textureAtlas_1975372881_1_img",
            "target": 3553,
            "type": 5121
        }
    }
}