{
    "accessors": {
        "accessor_21": {
            "bufferView": "bufferView_30",
            "byteOffset": 0,
            "byteStride": 0,
            "componentType": 5123,
            "count": 342,
            "type": "SCALAR"
        },
        "accessor_24": {
            "bufferView": "bufferView_30",
            "byteOffset": 684,
            "byteStride": 0,
            "componentType": 5123,
            "count": 360,
            "type": "SCALAR"
        },
        "accessor_26": {
            "bufferView": "bufferView_31",
            "byteOffset": 0,
            "byteStride": 12,
            "componentType": 5126,
            "count": 310,
            "max": [
                1.01214,
                21.6661,
                21.1446
            ],
            "min": [
                -23.2877,
                -22.4508,
                0
            ],
            "type": "VEC3"
        },
        "accessor_28": {
            "bufferView": "bufferView_31",
            "byteOffset": 3720,
            "byteStride": 8,
            "componentType": 5126,
            "count": 310,
            "max": [
                3.2451e+35,
                8.18051e+37
            ],
            "min": [
                -2.80744e+38,
                -2.08583e+38
            ],
            "type": "VEC2"
        }
    },
    "animations": {},
    "asset": {
        "generator": "collada2gltf@d78daf1e7950e6c22fe6bec1d07965e8a302e90d",
        "premultipliedAlpha": true,
        "profile": {
            "api": "WebGL",
            "version": "1.0.2"
        },
        "version": 1
    },
    "bufferViews": {
        "bufferView_30": {
            "buffer": "LYON_1ER_00157",
            "byteLength": 1404,
            "byteOffset": 0,
            "target": 34963
        },
        "bufferView_31": {
            "buffer": "LYON_1ER_00157",
            "byteLength": 6200,
            "byteOffset": 1404,
            "target": 34962
        }
    },
    "buffers": {
        "LYON_1ER_00157": {
            "byteLength": 7604,
            "type": "arraybuffer",
            "uri": "data:application/octet-stream;base64,"
        }
    },
    "images": {
        "_LYON_1ER_00157_Roof_img": {
            "name": "_LYON_1ER_00157_Roof_img",
            "uri": "data:image/jpeg;base64,"
        }
    },
    "materials": {
        "_LYON_1ER_00157_Roof_eff": {
            "name": "_LYON_1ER_00157_Roof_mat",
            "technique": "technique0",
            "values": {
                "diffuse": "texture__LYON_1ER_00157_Roof_img",
                "emission": [
                    0,
                    0,
                    0,
                    1
                ]
            }
        },
        "default_ai_0.2_sh_0.2_tr_0.0_dc_r_0.8_g_0.8_b_0.8_sc_r_1.0_g_1.0_b_1.0_ec_r_0.0_g_0.0_b_0_eff": {
            "name": "default_ai_0.2_sh_0.2_tr_0.0_dc_r_0.8_g_0.8_b_0.8_sc_r_1.0_g_1.0_b_1.0_ec_r_0.0_g_0.0_b_0_mat",
            "technique": "technique1",
            "values": {
                "diffuse": [
                    0.8,
                    0.8,
                    0.8,
                    1
                ],
                "emission": [
                    0,
                    0,
                    0,
                    1
                ]
            }
        }
    },
    "meshes": {
        "geometry0": {
            "name": "geometry0",
            "primitives": [
                {
                    "attributes": {
                        "POSITION": "accessor_26",
                        "TEXCOORD_0": "accessor_28"
                    },
                    "indices": "accessor_21",
                    "material": "_LYON_1ER_00157_Roof_eff",
                    "mode": 4
                },
                {
                    "attributes": {
                        "POSITION": "accessor_26"
                    },
                    "indices": "accessor_24",
                    "material": "default_ai_0.2_sh_0.2_tr_0.0_dc_r_0.8_g_0.8_b_0.8_sc_r_1.0_g_1.0_b_1.0_ec_r_0.0_g_0.0_b_0_eff",
                    "mode": 4
                }
            ]
        }
    },
    "nodes": {
        "node_0": {
            "children": [],
            "matrix": [
                1,
                0,
                0,
                0,
                0,
                1,
                0,
                0,
                0,
                0,
                1,
                0,
                0,
                0,
                0,
                1
            ],
            "meshes": [
                "geometry0"
            ],
            "name": ""
        },
        "node_1": {
            "children": [
                "node_0"
            ],
            "matrix": [
                1,
                0,
                0,
                0,
                0,
                0,
                -1,
                0,
                0,
                1,
                0,
                0,
                0,
                0,
                0,
                1
            ],
            "name": "Y_UP_Transform"
        }
    },
    "programs": {
        "program_0": {
            "attributes": [
                "a_position",
                "a_texcoord0"
            ],
            "fragmentShader": "LYON_1ER_001570FS",
            "vertexShader": "LYON_1ER_001570VS"
        },
        "program_1": {
            "attributes": [
                "a_position"
            ],
            "fragmentShader": "LYON_1ER_001571FS",
            "vertexShader": "LYON_1ER_001571VS"
        }
    },
    "samplers": {
        "sampler_0": {
            "magFilter": 9729,
            "minFilter": 9729,
            "wrapS": 10497,
            "wrapT": 10497
        }
    },
    "scene": "defaultScene",
    "scenes": {
        "defaultScene": {
            "nodes": [
                "node_1"
            ]
        }
    },
    "shaders": {
        "LYON_1ER_001570FS": {
            "type": 35632,
            "uri": "data:text/plain;base64,"
        },
        "LYON_1ER_001570VS": {
            "type": 35633,
            "uri": "data:text/plain;base64,"
        },
        "LYON_1ER_001571FS": {
            "type": 35632,
            "uri": "data:text/plain;base64,"
        },
        "LYON_1ER_001571VS": {
            "type": 35633,
            "uri": "data:text/plain;base64,"
        }
    },
    "skins": {},
    "techniques": {
        "technique0": {
            "attributes": {
                "a_position": "position",
                "a_texcoord0": "texcoord0"
            },
            "parameters": {
                "diffuse": {
                    "type": 35678
                },
                "emission": {
                    "type": 35666
                },
                "modelViewMatrix": {
                    "semantic": "MODELVIEW",
                    "type": 35676
                },
                "position": {
                    "semantic": "POSITION",
                    "type": 35665
                },
                "projectionMatrix": {
                    "semantic": "PROJECTION",
                    "type": 35676
                },
                "texcoord0": {
                    "semantic": "TEXCOORD_0",
                    "type": 35664
                }
            },
            "program": "program_0",
            "states": {
                "enable": [
                    2929,
                    2884
                ]
            },
            "uniforms": {
                "u_diffuse": "diffuse",
                "u_emission": "emission",
                "u_modelViewMatrix": "modelViewMatrix",
                "u_projectionMatrix": "projectionMatrix"
            }
        },
        "technique1": {
            "attributes": {
                "a_position": "position"
            },
            "parameters": {
                "diffuse": {
                    "type": 35666
                },
                "emission": {
                    "type": 35666
                },
                "modelViewMatrix": {
                    "semantic": "MODELVIEW",
                    "type": 35676
                },
                "position": {
                    "semantic": "POSITION",
                    "type": 35665
                },
                "projectionMatrix": {
                    "semantic": "PROJECTION",
                    "type": 35676
                }
            },
            "program": "program_1",
            "states": {
                "enable": [
                    2929,
                    2884
                ]
            },
            "uniforms": {
                "u_diffuse": "diffuse",
                "u_emission": "emission",
                "u_modelViewMatrix": "modelViewMatrix",
                "u_projectionMatrix": "projectionMatrix"
            }
        }
    },
    "textures": {
        "texture__LYON_1ER_00157_Roof_img": {
            "format": 6408,
            "internalFormat": 6408,
            "sampler": "sampler_0",
            "source": "_LYON_1ER_00157_Roof_img",
            "target": 3553,
            "type": 5121
        }
    }
}