{
    "accessors": {
        "accessor_15": {
            "bufferView": "bufferView_21",
            "byteOffset": 0,
            "byteStride": 0,
            "componentType": 5123,
            "count": 1956,
            "type": "SCALAR"
        },
        "accessor_17": {
            "bufferView": "bufferView_22",
            "byteOffset": 0,
            "byteStride": 12,
            "componentType": 5126,
            "count": 1062,
            "max": [
                39.9297,
                87.3813,
                75.0548
            ],
            "min": [
                -107.931,
                -21.7244,
                0
            ],
            "type": "VEC3"
        },
        "accessor_19": {
            "bufferView": "bufferView_22",
            "byteOffset": 12744,
            "byteStride": 8,
            "componentType": 5126,
            "count": 1062,
            "max": [
                0.999511,
                0.999511
            ],
            "min": [
                0.000489,
                0.00342149
            ],
            "type": "VEC2"
        }
    },
    "animations": {},
    "asset": {
        "generator": "collada2gltf@d78daf1e7950e6c22fe6bec1d07965e8a302e90d",
        "premultipliedAlpha": true,
        "profile": {
            "api": "WebGL",
            "version": "1.0.2"
        },
        "version": 1
    },
    "bufferViews": {
        "bufferView_21": {
            "buffer": "LYON_1ER_00068",
            "byteLength": 3912,
            "byteOffset": 0,
            "target": 34963
        },
        "bufferView_22": {
            "buffer": "LYON_1ER_00068",
            "byteLength": 21240,
            "byteOffset": 3912,
            "target": 34962
        }
    },
    "buffers": {
        "LYON_1ER_00068": {
            "byteLength": 25152,
            "type": "arraybuffer",
            "uri": "data:application/octet-stream;base64,"
        }
    },
    "images": {
        "textureAtlas_527276241_0_img": {
            "name": "textureAtlas_527276241_0_img",
            "uri": "textureAtlas_527276241_0.jpeg"
        }
    },
    "materials": {
        "textureAtlas_527276241_0_eff": {
            "name": "textureAtlas_527276241_0_mat",
            "technique": "technique0",
            "values": {
                "diffuse": "texture_textureAtlas_527276241_0_img",
                "emission": [
                    0,
                    0,
                    0,
                    1
                ]
            }
        }
    },
    "meshes": {
        "geometry0": {
            "name": "geometry0",
            "primitives": [
                {
                    "attributes": {
                        "POSITION": "accessor_17",
                        "TEXCOORD_0": "accessor_19"
                    },
                    "indices": "accessor_15",
                    "material": "textureAtlas_527276241_0_eff",
                    "mode": 4
                }
            ]
        }
    },
    "nodes": {
        "node_0": {
            "children": [],
            "matrix": [
                1,
                0,
                0,
                0,
                0,
                1,
                0,
                0,
                0,
                0,
                1,
                0,
                0,
                0,
                0,
                1
            ],
            "meshes": [
                "geometry0"
            ],
            "name": ""
        },
        "node_1": {
            "children": [
                "node_0"
            ],
            "matrix": [
                1,
                0,
                0,
                0,
                0,
                0,
                -1,
                0,
                0,
                1,
                0,
                0,
                0,
                0,
                0,
                1
            ],
            "name": "Y_UP_Transform"
        }
    },
    "programs": {
        "program_0": {
            "attributes": [
                "a_position",
                "a_texcoord0"
            ],
            "fragmentShader": "LYON_1ER_000680FS",
            "vertexShader": "LYON_1ER_000680VS"
        }
    },
    "samplers": {
        "sampler_0": {
            "magFilter": 9729,
            "minFilter": 9729,
            "wrapS": 10497,
            "wrapT": 10497
        }
    },
    "scene": "defaultScene",
    "scenes": {
        "defaultScene": {
            "nodes": [
                "node_1"
            ]
        }
    },
    "shaders": {
        "LYON_1ER_000680FS": {
            "type": 35632,
            "uri": "data:text/plain;base64,"
        },
        "LYON_1ER_000680VS": {
            "type": 35633,
            "uri": "data:text/plain;base64,"
        }
    },
    "skins": {},
    "techniques": {
        "technique0": {
            "attributes": {
                "a_position": "position",
                "a_texcoord0": "texcoord0"
            },
            "parameters": {
                "diffuse": {
                    "type": 35678
                },
                "emission": {
                    "type": 35666
                },
                "modelViewMatrix": {
                    "semantic": "MODELVIEW",
                    "type": 35676
                },
                "position": {
                    "semantic": "POSITION",
                    "type": 35665
                },
                "projectionMatrix": {
                    "semantic": "PROJECTION",
                    "type": 35676
                },
                "texcoord0": {
                    "semantic": "TEXCOORD_0",
                    "type": 35664
                }
            },
            "program": "program_0",
            "states": {
                "enable": [
                    2929,
                    2884
                ]
            },
            "uniforms": {
                "u_diffuse": "diffuse",
                "u_emission": "emission",
                "u_modelViewMatrix": "modelViewMatrix",
                "u_projectionMatrix": "projectionMatrix"
            }
        }
    },
    "textures": {
        "texture_textureAtlas_527276241_0_img": {
            "format": 6408,
            "internalFormat": 6408,
            "sampler": "sampler_0",
            "source": "textureAtlas_527276241_0_img",
            "target": 3553,
            "type": 5121
        }
    }
}