{
    "accessors": {
        "accessor_48": {
            "bufferView": "bufferView_63",
            "byteOffset": 0,
            "byteStride": 0,
            "componentType": 5123,
            "count": 3819,
            "type": "SCALAR"
        },
        "accessor_51": {
            "bufferView": "bufferView_63",
            "byteOffset": 7638,
            "byteStride": 0,
            "componentType": 5123,
            "count": 5805,
            "type": "SCALAR"
        },
        "accessor_54": {
            "bufferView": "bufferView_63",
            "byteOffset": 19248,
            "byteStride": 0,
            "componentType": 5123,
            "count": 6702,
            "type": "SCALAR"
        },
        "accessor_57": {
            "bufferView": "bufferView_63",
            "byteOffset": 32652,
            "byteStride": 0,
            "componentType": 5123,
            "count": 10446,
            "type": "SCALAR"
        },
        "accessor_59": {
            "bufferView": "bufferView_64",
            "byteOffset": 0,
            "byteStride": 12,
            "componentType": 5126,
            "count": 15551,
            "max": [
                18.8036,
                215.254,
                64.2483
            ],
            "min": [
                -583.172,
                -131.202,
                0
            ],
            "type": "VEC3"
        },
        "accessor_61": {
            "bufferView": "bufferView_64",
            "byteOffset": 186612,
            "byteStride": 8,
            "componentType": 5126,
            "count": 15551,
            "max": [
                0.999267,
                0.999756
            ],
            "min": [
                0.000244,
                0.00854701
            ],
            "type": "VEC2"
        }
    },
    "animations": {},
    "asset": {
        "generator": "collada2gltf@d78daf1e7950e6c22fe6bec1d07965e8a302e90d",
        "premultipliedAlpha": true,
        "profile": {
            "api": "WebGL",
            "version": "1.0.2"
        },
        "version": 1
    },
    "bufferViews": {
        "bufferView_63": {
            "buffer": "LYON_1ER_00163",
            "byteLength": 53544,
            "byteOffset": 0,
            "target": 34963
        },
        "bufferView_64": {
            "buffer": "LYON_1ER_00163",
            "byteLength": 311020,
            "byteOffset": 53544,
            "target": 34962
        }
    },
    "buffers": {
        "LYON_1ER_00163": {
            "byteLength": 364564,
            "type": "arraybuffer",
            "uri": "data:application/octet-stream;base64,"
        }
    },
    "images": {
        "textureAtlas_1502132401_0_img": {
            "name": "textureAtlas_1502132401_0_img",
            "uri": "textureAtlas_1502132401_0.jpeg"
        },
        "textureAtlas_1502132401_1_img": {
            "name": "textureAtlas_1502132401_1_img",
            "uri": "textureAtlas_1502132401_1.jpeg"
        },
        "textureAtlas_1502132401_2_img": {
            "name": "textureAtlas_1502132401_2_img",
            "uri": "textureAtlas_1502132401_2.jpeg"
        },
        "textureAtlas_1502132401_3_img": {
            "name": "textureAtlas_1502132401_3_img",
            "uri": "textureAtlas_1502132401_3.jpeg"
        }
    },
    "materials": {
        "textureAtlas_1502132401_0_eff": {
            "name": "textureAtlas_1502132401_0_mat",
            "technique": "technique0",
            "values": {
                "diffuse": "texture_textureAtlas_1502132401_0_img",
                "emission": [
                    0,
                    0,
                    0,
                    1
                ]
            }
        },
        "textureAtlas_1502132401_1_eff": {
            "name": "textureAtlas_1502132401_1_mat",
            "technique": "technique0",
            "values": {
                "diffuse": "texture_textureAtlas_1502132401_1_img",
                "emission": [
                    0,
                    0,
                    0,
                    1
                ]
            }
        },
        "textureAtlas_1502132401_2_eff": {
            "name": "textureAtlas_1502132401_2_mat",
            "technique": "technique0",
            "values": {
                "diffuse": "texture_textureAtlas_1502132401_2_img",
                "emission": [
                    0,
                    0,
                    0,
                    1
                ]
            }
        },
        "textureAtlas_1502132401_3_eff": {
            "name": "textureAtlas_1502132401_3_mat",
            "technique": "technique0",
            "values": {
                "diffuse": "texture_textureAtlas_1502132401_3_img",
                "emission": [
                    0,
                    0,
                    0,
                    1
                ]
            }
        }
    },
    "meshes": {
        "geometry0": {
            "name": "geometry0",
            "primitives": [
                {
                    "attributes": {
                        "POSITION": "accessor_59",
                        "TEXCOORD_0": "accessor_61"
                    },
                    "indices": "accessor_48",
                    "material": "textureAtlas_1502132401_1_eff",
                    "mode": 4
                },
                {
                    "attributes": {
                        "POSITION": "accessor_59",
                        "TEXCOORD_0": "accessor_61"
                    },
                    "indices": "accessor_51",
                    "material": "textureAtlas_1502132401_3_eff",
                    "mode": 4
                },
                {
                    "attributes": {
                        "POSITION": "accessor_59",
                        "TEXCOORD_0": "accessor_61"
                    },
                    "indices": "accessor_54",
                    "material": "textureAtlas_1502132401_0_eff",
                    "mode": 4
                },
                {
                    "attributes": {
                        "POSITION": "accessor_59",
                        "TEXCOORD_0": "accessor_61"
                    },
                    "indices": "accessor_57",
                    "material": "textureAtlas_1502132401_2_eff",
                    "mode": 4
                }
            ]
        }
    },
    "nodes": {
        "node_0": {
            "children": [],
            "matrix": [
                1,
                0,
                0,
                0,
                0,
                1,
                0,
                0,
                0,
                0,
                1,
                0,
                0,
                0,
                0,
                1
            ],
            "meshes": [
                "geometry0"
            ],
            "name": ""
        },
        "node_1": {
            "children": [
                "node_0"
            ],
            "matrix": [
                1,
                0,
                0,
                0,
                0,
                0,
                -1,
                0,
                0,
                1,
                0,
                0,
                0,
                0,
                0,
                1
            ],
            "name": "Y_UP_Transform"
        }
    },
    "programs": {
        "program_0": {
            "attributes": [
                "a_position",
                "a_texcoord0"
            ],
            "fragmentShader": "LYON_1ER_001630FS",
            "vertexShader": "LYON_1ER_001630VS"
        }
    },
    "samplers": {
        "sampler_0": {
            "magFilter": 9729,
            "minFilter": 9729,
            "wrapS": 10497,
            "wrapT": 10497
        }
    },
    "scene": "defaultScene",
    "scenes": {
        "defaultScene": {
            "nodes": [
                "node_1"
            ]
        }
    },
    "shaders": {
        "LYON_1ER_001630FS": {
            "type": 35632,
            "uri": "data:text/plain;base64,"
        },
        "LYON_1ER_001630VS": {
            "type": 35633,
            "uri": "data:text/plain;base64,"
        }
    },
    "skins": {},
    "techniques": {
        "technique0": {
            "attributes": {
                "a_position": "position",
                "a_texcoord0": "texcoord0"
            },
            "parameters": {
                "diffuse": {
                    "type": 35678
                },
                "emission": {
                    "type": 35666
                },
                "modelViewMatrix": {
                    "semantic": "MODELVIEW",
                    "type": 35676
                },
                "position": {
                    "semantic": "POSITION",
                    "type": 35665
                },
                "projectionMatrix": {
                    "semantic": "PROJECTION",
                    "type": 35676
                },
                "texcoord0": {
                    "semantic": "TEXCOORD_0",
                    "type": 35664
                }
            },
            "program": "program_0",
            "states": {
                "enable": [
                    2929,
                    2884
                ]
            },
            "uniforms": {
                "u_diffuse": "diffuse",
                "u_emission": "emission",
                "u_modelViewMatrix": "modelViewMatrix",
                "u_projectionMatrix": "projectionMatrix"
            }
        }
    },
    "textures": {
        "texture_textureAtlas_1502132401_0_img": {
            "format": 6408,
            "internalFormat": 6408,
            "sampler": "sampler_0",
            "source": "textureAtlas_1502132401_0_img",
            "target": 3553,
            "type": 5121
        },
        "texture_textureAtlas_1502132401_1_img": {
            "format": 6408,
            "internalFormat": 6408,
            "sampler": "sampler_0",
            "source": "textureAtlas_1502132401_1_img",
            "target": 3553,
            "type": 5121
        },
        "texture_textureAtlas_1502132401_2_img": {
            "format": 6408,
            "internalFormat": 6408,
            "sampler": "sampler_0",
            "source": "textureAtlas_1502132401_2_img",
            "target": 3553,
            "type": 5121
        },
        "texture_textureAtlas_1502132401_3_img": {
            "format": 6408,
            "internalFormat": 6408,
            "sampler": "sampler_0",
            "source": "textureAtlas_1502132401_3_img",
            "target": 3553,
            "type": 5121
        }
    }
}